<?xml version="1.0" encoding="UTF-8" standalone="no"?>
<!DOCTYPE svg PUBLIC "-//W3C//DTD SVG 1.1//EN"
 "http://www.w3.org/Graphics/SVG/1.1/DTD/svg11.dtd">
<!-- Generated by graphviz version 2.38.0 (20140413.2041)
 -->
<!-- Title: %3 Pages: 1 -->
<svg width="430pt" height="482pt"
 viewBox="0.00 0.00 430.21 481.77" xmlns="http://www.w3.org/2000/svg" xmlns:xlink="http://www.w3.org/1999/xlink">
<g id="graph0" class="graph" transform="scale(1 1) rotate(0) translate(4 477.772)">
<title>%3</title>
<polygon fill="white" stroke="none" points="-4,4 -4,-477.772 426.213,-477.772 426.213,4 -4,4"/>
<!-- &#45;1 -->
<g id="node1" class="node"><title>&#45;1</title>
<polygon fill="lightgray" stroke="black" points="253.713,-401.194 229.713,-401.194 229.713,-383.194 253.713,-383.194 253.713,-401.194"/>
<text text-anchor="middle" x="241.713" y="-389.994" font-family="Times New Roman,serif" font-size="9.00">&#45;1</text>
</g>
<!-- 0 -->
<g id="node13" class="node"><title>0</title>
<ellipse fill="lightblue" stroke="black" cx="200.713" cy="-301.04" rx="14.7" ry="14.7"/>
<text text-anchor="middle" x="200.713" y="-298.84" font-family="Times New Roman,serif" font-size="9.00">0</text>
</g>
<!-- &#45;1&#45;&gt;0 -->
<g id="edge5" class="edge"><title>&#45;1&#45;&gt;0</title>
<path fill="none" stroke="green" stroke-width="0.223985" d="M237.929,-382.967C231.818,-369.678 219.574,-343.055 210.798,-323.972"/>
<polygon fill="green" stroke="green" stroke-width="0.223985" points="213.934,-322.413 206.576,-314.79 207.574,-325.338 213.934,-322.413"/>
</g>
<!-- 1 -->
<g id="node14" class="node"><title>1</title>
<ellipse fill="lightblue" stroke="black" cx="248.713" cy="-301.04" rx="14.7" ry="14.7"/>
<text text-anchor="middle" x="248.713" y="-298.84" font-family="Times New Roman,serif" font-size="9.00">1</text>
</g>
<!-- &#45;1&#45;&gt;1 -->
<g id="edge1" class="edge"><title>&#45;1&#45;&gt;1</title>
<path fill="none" stroke="red" stroke-width="0.317013" d="M242.359,-382.967C243.365,-370.151 245.345,-344.932 246.829,-326.035"/>
<polygon fill="red" stroke="red" stroke-width="0.317013" points="250.319,-326.287 247.613,-316.044 243.341,-325.739 250.319,-326.287"/>
</g>
<!-- &#45;2 -->
<g id="node2" class="node"><title>&#45;2</title>
<polygon fill="lightgray" stroke="black" points="95.7126,-401.194 71.7126,-401.194 71.7126,-383.194 95.7126,-383.194 95.7126,-401.194"/>
<text text-anchor="middle" x="83.7126" y="-389.994" font-family="Times New Roman,serif" font-size="9.00">&#45;2</text>
</g>
<!-- 11119 -->
<g id="node17" class="node"><title>11119</title>
<ellipse fill="white" stroke="black" cx="140.713" cy="-301.04" rx="27.6545" ry="27.6545"/>
<text text-anchor="middle" x="140.713" y="-298.84" font-family="Times New Roman,serif" font-size="9.00">11119</text>
</g>
<!-- &#45;2&#45;&gt;11119 -->
<g id="edge10" class="edge"><title>&#45;2&#45;&gt;11119</title>
<path fill="none" stroke="red" stroke-width="0.373008" d="M88.9728,-382.967C96.1075,-371.807 109.254,-351.244 120.51,-333.639"/>
<polygon fill="red" stroke="red" stroke-width="0.373008" points="123.744,-335.079 126.182,-324.768 117.846,-331.308 123.744,-335.079"/>
</g>
<!-- &#45;3 -->
<g id="node3" class="node"><title>&#45;3</title>
<polygon fill="lightgray" stroke="black" points="128.713,-473.772 104.713,-473.772 104.713,-455.772 128.713,-455.772 128.713,-473.772"/>
<text text-anchor="middle" x="116.713" y="-462.572" font-family="Times New Roman,serif" font-size="9.00">&#45;3</text>
</g>
<!-- &#45;4 -->
<g id="node4" class="node"><title>&#45;4</title>
<polygon fill="lightgray" stroke="black" points="170.713,-473.772 146.713,-473.772 146.713,-455.772 170.713,-455.772 170.713,-473.772"/>
<text text-anchor="middle" x="158.713" y="-462.572" font-family="Times New Roman,serif" font-size="9.00">&#45;4</text>
</g>
<!-- &#45;5 -->
<g id="node5" class="node"><title>&#45;5</title>
<polygon fill="lightgray" stroke="black" points="53.7126,-401.194 29.7126,-401.194 29.7126,-383.194 53.7126,-383.194 53.7126,-401.194"/>
<text text-anchor="middle" x="41.7126" y="-389.994" font-family="Times New Roman,serif" font-size="9.00">&#45;5</text>
</g>
<!-- 11554 -->
<g id="node15" class="node"><title>11554</title>
<ellipse fill="white" stroke="black" cx="41.7126" cy="-27.5772" rx="27.6545" ry="27.6545"/>
<text text-anchor="middle" x="41.7126" y="-25.3772" font-family="Times New Roman,serif" font-size="9.00">11554</text>
</g>
<!-- &#45;5&#45;&gt;11554 -->
<g id="edge12" class="edge"><title>&#45;5&#45;&gt;11554</title>
<path fill="none" stroke="green" stroke-width="0.297255" d="M41.7126,-382.939C41.7126,-340.673 41.7126,-147.312 41.7126,-65.406"/>
<polygon fill="green" stroke="green" stroke-width="0.297255" points="45.2127,-65.2999 41.7126,-55.2999 38.2127,-65.2999 45.2127,-65.2999"/>
</g>
<!-- &#45;5&#45;&gt;11119 -->
<g id="edge17" class="edge"><title>&#45;5&#45;&gt;11119</title>
<path fill="none" stroke="red" stroke-width="0.538881" d="M47.5155,-382.892C51.5037,-377.439 57.0784,-370.293 62.7126,-364.617 77.2305,-349.991 95.0552,-335.475 109.999,-324.111"/>
<polygon fill="red" stroke="red" stroke-width="0.538881" points="112.51,-326.602 118.417,-317.807 108.315,-320.999 112.51,-326.602"/>
</g>
<!-- &#45;6 -->
<g id="node6" class="node"><title>&#45;6</title>
<polygon fill="lightgray" stroke="black" points="212.713,-473.772 188.713,-473.772 188.713,-455.772 212.713,-455.772 212.713,-473.772"/>
<text text-anchor="middle" x="200.713" y="-462.572" font-family="Times New Roman,serif" font-size="9.00">&#45;6</text>
</g>
<!-- &#45;7 -->
<g id="node7" class="node"><title>&#45;7</title>
<polygon fill="lightgray" stroke="black" points="343.713,-401.194 319.713,-401.194 319.713,-383.194 343.713,-383.194 343.713,-401.194"/>
<text text-anchor="middle" x="331.713" y="-389.994" font-family="Times New Roman,serif" font-size="9.00">&#45;7</text>
</g>
<!-- &#45;7&#45;&gt;1 -->
<g id="edge4" class="edge"><title>&#45;7&#45;&gt;1</title>
<path fill="none" stroke="red" stroke-width="0.138138" stroke-dasharray="1,5" d="M325.332,-383.144C321.026,-377.799 315.157,-370.677 309.713,-364.617 295.571,-348.88 278.735,-331.719 266.337,-319.355"/>
<polygon fill="red" stroke="red" stroke-width="0.138138" points="268.469,-316.541 258.903,-311.986 263.541,-321.512 268.469,-316.541"/>
</g>
<!-- 11371 -->
<g id="node16" class="node"><title>11371</title>
<ellipse fill="white" stroke="black" cx="245.713" cy="-209.886" rx="27.6545" ry="27.6545"/>
<text text-anchor="middle" x="245.713" y="-207.686" font-family="Times New Roman,serif" font-size="9.00">11371</text>
</g>
<!-- &#45;7&#45;&gt;11371 -->
<g id="edge11" class="edge"><title>&#45;7&#45;&gt;11371</title>
<path fill="none" stroke="red" stroke-width="0.615566" stroke-dasharray="1,5" d="M327.794,-382.978C316.277,-358.832 282.063,-287.099 261.624,-244.247"/>
<polygon fill="red" stroke="red" stroke-width="0.615566" points="264.703,-242.572 257.239,-235.052 258.385,-245.585 264.703,-242.572"/>
</g>
<!-- 11571 -->
<g id="node18" class="node"><title>11571</title>
<ellipse fill="white" stroke="black" cx="347.713" cy="-301.04" rx="27.6545" ry="27.6545"/>
<text text-anchor="middle" x="347.713" y="-298.84" font-family="Times New Roman,serif" font-size="9.00">11571</text>
</g>
<!-- &#45;7&#45;&gt;11571 -->
<g id="edge13" class="edge"><title>&#45;7&#45;&gt;11571</title>
<path fill="none" stroke="green" stroke-width="0.266495" d="M333.189,-382.967C335.021,-372.757 338.266,-354.676 341.225,-338.191"/>
<polygon fill="green" stroke="green" stroke-width="0.266495" points="344.693,-338.678 343.015,-328.217 337.803,-337.442 344.693,-338.678"/>
</g>
<!-- &#45;8 -->
<g id="node8" class="node"><title>&#45;8</title>
<polygon fill="lightgray" stroke="black" points="211.713,-401.194 187.713,-401.194 187.713,-383.194 211.713,-383.194 211.713,-401.194"/>
<text text-anchor="middle" x="199.713" y="-389.994" font-family="Times New Roman,serif" font-size="9.00">&#45;8</text>
</g>
<!-- &#45;8&#45;&gt;0 -->
<g id="edge3" class="edge"><title>&#45;8&#45;&gt;0</title>
<path fill="none" stroke="red" stroke-width="0.355525" d="M199.805,-382.967C199.948,-370.21 200.229,-345.166 200.44,-326.299"/>
<polygon fill="red" stroke="red" stroke-width="0.355525" points="203.943,-326.083 200.555,-316.044 196.943,-326.004 203.943,-326.083"/>
</g>
<!-- &#45;8&#45;&gt;11119 -->
<g id="edge19" class="edge"><title>&#45;8&#45;&gt;11119</title>
<path fill="none" stroke="red" stroke-width="0.171384" d="M194.268,-382.967C186.766,-371.631 172.843,-350.591 161.073,-332.806"/>
<polygon fill="red" stroke="red" stroke-width="0.171384" points="163.943,-330.801 155.506,-324.394 158.106,-334.665 163.943,-330.801"/>
</g>
<!-- &#45;9 -->
<g id="node9" class="node"><title>&#45;9</title>
<polygon fill="lightgray" stroke="black" points="254.713,-473.772 230.713,-473.772 230.713,-455.772 254.713,-455.772 254.713,-473.772"/>
<text text-anchor="middle" x="242.713" y="-462.572" font-family="Times New Roman,serif" font-size="9.00">&#45;9</text>
</g>
<!-- &#45;10 -->
<g id="node10" class="node"><title>&#45;10</title>
<polygon fill="lightgray" stroke="black" points="422.213,-310.04 393.213,-310.04 393.213,-292.04 422.213,-292.04 422.213,-310.04"/>
<text text-anchor="middle" x="407.713" y="-298.84" font-family="Times New Roman,serif" font-size="9.00">&#45;10</text>
</g>
<!-- &#45;10&#45;&gt;11371 -->
<g id="edge20" class="edge"><title>&#45;10&#45;&gt;11371</title>
<path fill="none" stroke="red" stroke-width="0.171746" d="M402.045,-291.758C397.8,-286.036 391.564,-278.566 384.713,-273.463 352.964,-249.814 310.858,-232.436 281.339,-222.075"/>
<polygon fill="red" stroke="red" stroke-width="0.171746" points="282.439,-218.752 271.844,-218.832 280.176,-225.376 282.439,-218.752"/>
</g>
<!-- &#45;11 -->
<g id="node11" class="node"><title>&#45;11</title>
<polygon fill="lightgray" stroke="black" points="301.213,-401.194 272.213,-401.194 272.213,-383.194 301.213,-383.194 301.213,-401.194"/>
<text text-anchor="middle" x="286.713" y="-389.994" font-family="Times New Roman,serif" font-size="9.00">&#45;11</text>
</g>
<!-- &#45;11&#45;&gt;1 -->
<g id="edge2" class="edge"><title>&#45;11&#45;&gt;1</title>
<path fill="none" stroke="green" stroke-width="0.64525" stroke-dasharray="1,5" d="M283.206,-382.967C277.599,-369.812 266.423,-343.591 258.308,-324.551"/>
<polygon fill="green" stroke="green" stroke-width="0.64525" points="261.42,-322.926 254.279,-315.099 254.98,-325.671 261.42,-322.926"/>
</g>
<!-- &#45;12 -->
<g id="node12" class="node"><title>&#45;12</title>
<polygon fill="lightgray" stroke="black" points="86.2126,-473.772 57.2126,-473.772 57.2126,-455.772 86.2126,-455.772 86.2126,-473.772"/>
<text text-anchor="middle" x="71.7126" y="-462.572" font-family="Times New Roman,serif" font-size="9.00">&#45;12</text>
</g>
<!-- &#45;12&#45;&gt;11554 -->
<g id="edge18" class="edge"><title>&#45;12&#45;&gt;11554</title>
<path fill="none" stroke="red" stroke-width="0.187704" d="M57.5926,-455.57C45.7357,-447.891 29.3817,-435.289 20.7126,-419.772 -5.13768,-373.501 1.71256,-355.042 1.71256,-302.04 1.71256,-302.04 1.71256,-302.04 1.71256,-208.886 1.71256,-157.302 17.5089,-99.3449 29.2482,-63.3958"/>
<polygon fill="red" stroke="red" stroke-width="0.187704" points="32.5837,-64.4573 32.4352,-53.8635 25.9449,-62.2376 32.5837,-64.4573"/>
</g>
<!-- 11061 -->
<g id="node19" class="node"><title>11061</title>
<ellipse fill="white" stroke="black" cx="141.713" cy="-392.194" rx="27.6545" ry="27.6545"/>
<text text-anchor="middle" x="141.713" y="-389.994" font-family="Times New Roman,serif" font-size="9.00">11061</text>
</g>
<!-- &#45;12&#45;&gt;11061 -->
<g id="edge7" class="edge"><title>&#45;12&#45;&gt;11061</title>
<path fill="none" stroke="green" stroke-width="0.242987" d="M79.7424,-455.676C88.4482,-446.898 102.803,-432.425 115.505,-419.618"/>
<polygon fill="green" stroke="green" stroke-width="0.242987" points="118.181,-421.89 122.738,-412.326 113.211,-416.961 118.181,-421.89"/>
</g>
<!-- 0&#45;&gt;11371 -->
<g id="edge16" class="edge"><title>0&#45;&gt;11371</title>
<path fill="none" stroke="green" stroke-width="0.488797" d="M207.16,-287.267C212.835,-276.022 221.354,-259.145 228.942,-244.113"/>
<polygon fill="green" stroke="green" stroke-width="0.488797" points="232.13,-245.563 233.512,-235.058 225.881,-242.408 232.13,-245.563"/>
</g>
<!-- 10878 -->
<g id="node20" class="node"><title>10878</title>
<ellipse fill="white" stroke="black" cx="140.713" cy="-118.731" rx="27.6545" ry="27.6545"/>
<text text-anchor="middle" x="140.713" y="-116.531" font-family="Times New Roman,serif" font-size="9.00">10878</text>
</g>
<!-- 11371&#45;&gt;10878 -->
<g id="edge9" class="edge"><title>11371&#45;&gt;10878</title>
<path fill="none" stroke="red" stroke-width="0.265792" d="M224.968,-191.272C209.005,-177.718 186.768,-158.836 169.146,-143.874"/>
<polygon fill="red" stroke="red" stroke-width="0.265792" points="171.302,-141.113 161.414,-137.309 166.772,-146.449 171.302,-141.113"/>
</g>
<!-- 11119&#45;&gt;11371 -->
<g id="edge8" class="edge"><title>11119&#45;&gt;11371</title>
<path fill="none" stroke="green" stroke-width="0.444342" d="M161.457,-282.426C177.42,-268.872 199.658,-249.991 217.279,-235.029"/>
<polygon fill="green" stroke="green" stroke-width="0.444342" points="219.654,-237.604 225.011,-228.463 215.123,-232.268 219.654,-237.604"/>
</g>
<!-- 11119&#45;&gt;10878 -->
<g id="edge6" class="edge"><title>11119&#45;&gt;10878</title>
<path fill="none" stroke="green" stroke-width="0.654151" stroke-dasharray="1,5" d="M140.713,-273.435C140.713,-242.541 140.713,-191.389 140.713,-156.657"/>
<polygon fill="green" stroke="green" stroke-width="0.654151" points="144.213,-156.446 140.713,-146.446 137.213,-156.446 144.213,-156.446"/>
</g>
<!-- 11571&#45;&gt;11371 -->
<g id="edge14" class="edge"><title>11571&#45;&gt;11371</title>
<path fill="none" stroke="red" stroke-width="0.493603" d="M327.071,-281.998C311.763,-268.618 290.718,-250.223 273.867,-235.494"/>
<polygon fill="red" stroke="red" stroke-width="0.493603" points="275.808,-232.542 265.975,-228.596 271.201,-237.813 275.808,-232.542"/>
</g>
<!-- 11061&#45;&gt;11119 -->
<g id="edge21" class="edge"><title>11061&#45;&gt;11119</title>
<path fill="none" stroke="green" stroke-width="0.165797" d="M141.413,-364.445C141.323,-356.423 141.222,-347.479 141.126,-338.924"/>
<polygon fill="green" stroke="green" stroke-width="0.165797" points="144.624,-338.731 141.012,-328.771 137.625,-338.809 144.624,-338.731"/>
</g>
<!-- 10878&#45;&gt;11554 -->
<g id="edge15" class="edge"><title>10878&#45;&gt;11554</title>
<path fill="none" stroke="green" stroke-width="0.431479" d="M120.678,-99.6898C105.918,-86.3971 85.661,-68.1549 69.36,-53.475"/>
<polygon fill="green" stroke="green" stroke-width="0.431479" points="71.49,-50.6831 61.7169,-46.592 66.8057,-55.8848 71.49,-50.6831"/>
</g>
</g>
</svg>
